<svg width="343" height="64" viewBox="0 0 343 64" fill="none" xmlns="http://www.w3.org/2000/svg">
<rect width="343" height="64" fill="#72695F"/>
<path d="M76.8477 40H74.4219V26.8984H69.5V40H67.0742V24.707H76.8477V40ZM81.8281 35.4648C81.9453 36.2148 82.3008 36.8398 82.8945 37.3398C83.4961 37.832 84.3008 38.0781 85.3086 38.0781C86.0977 38.0781 86.7812 37.957 87.3594 37.7148C87.9453 37.4648 88.4492 37.1367 88.8711 36.7305L90.1133 38.4414C89.4102 39.1445 88.6641 39.625 87.875 39.8828C87.0938 40.1406 86.2383 40.2695 85.3086 40.2695C84.4648 40.2695 83.6797 40.1289 82.9531 39.8477C82.2266 39.5664 81.5977 39.1758 81.0664 38.6758C80.5352 38.168 80.1172 37.5664 79.8125 36.8711C79.5156 36.1758 79.3672 35.4023 79.3672 34.5508C79.3672 33.7227 79.5039 32.9609 79.7773 32.2656C80.0586 31.5625 80.4492 30.957 80.9492 30.4492C81.457 29.9336 82.0625 29.5352 82.7656 29.2539C83.4688 28.9648 84.2461 28.8203 85.0977 28.8203C85.9805 28.8203 86.7812 28.9727 87.5 29.2773C88.2188 29.5742 88.832 30.0078 89.3398 30.5781C89.8555 31.1484 90.2578 31.8477 90.5469 32.6758C90.8359 33.4961 90.9805 34.4258 90.9805 35.4648H81.8281ZM88.2383 33.332C88.1133 32.6289 87.75 32.0664 87.1484 31.6445C86.5469 31.2148 85.8633 31 85.0977 31C84.332 31 83.6445 31.2148 83.0352 31.6445C82.4258 32.0664 82.0586 32.6289 81.9336 33.332H88.2383ZM93.2773 29.0781H95.7031V30.0625C96.1641 29.6484 96.6289 29.3398 97.0977 29.1367C97.5742 28.9258 98.1172 28.8203 98.7266 28.8203C99.4297 28.8203 100.082 28.9648 100.684 29.2539C101.285 29.5352 101.801 29.9297 102.23 30.4375C102.66 30.9375 103 31.543 103.25 32.2539C103.5 32.957 103.625 33.7227 103.625 34.5508C103.625 35.3867 103.5 36.1562 103.25 36.8594C103 37.5625 102.66 38.168 102.23 38.6758C101.801 39.1758 101.285 39.5664 100.684 39.8477C100.082 40.1289 99.4297 40.2695 98.7266 40.2695C98.1172 40.2695 97.5742 40.1602 97.0977 39.9414C96.6289 39.7227 96.1641 39.4062 95.7031 38.9922V44.3711H93.2773V29.0781ZM95.7031 37.0703C95.9922 37.3906 96.3594 37.6406 96.8047 37.8203C97.2578 37.9922 97.6914 38.0781 98.1055 38.0781C99.0195 38.0781 99.7617 37.7539 100.332 37.1055C100.91 36.457 101.199 35.6055 101.199 34.5508C101.199 33.4961 100.91 32.6406 100.332 31.9844C99.7617 31.3281 99.0195 31 98.1055 31C97.6914 31 97.2578 31.0859 96.8047 31.2578C96.3594 31.4219 95.9922 31.6641 95.7031 31.9844V37.0703ZM108.031 35.4648C108.148 36.2148 108.504 36.8398 109.098 37.3398C109.699 37.832 110.504 38.0781 111.512 38.0781C112.301 38.0781 112.984 37.957 113.562 37.7148C114.148 37.4648 114.652 37.1367 115.074 36.7305L116.316 38.4414C115.613 39.1445 114.867 39.625 114.078 39.8828C113.297 40.1406 112.441 40.2695 111.512 40.2695C110.668 40.2695 109.883 40.1289 109.156 39.8477C108.43 39.5664 107.801 39.1758 107.27 38.6758C106.738 38.168 106.32 37.5664 106.016 36.8711C105.719 36.1758 105.57 35.4023 105.57 34.5508C105.57 33.7227 105.707 32.9609 105.98 32.2656C106.262 31.5625 106.652 30.957 107.152 30.4492C107.66 29.9336 108.266 29.5352 108.969 29.2539C109.672 28.9648 110.449 28.8203 111.301 28.8203C112.184 28.8203 112.984 28.9727 113.703 29.2773C114.422 29.5742 115.035 30.0078 115.543 30.5781C116.059 31.1484 116.461 31.8477 116.75 32.6758C117.039 33.4961 117.184 34.4258 117.184 35.4648H108.031ZM114.441 33.332C114.316 32.6289 113.953 32.0664 113.352 31.6445C112.75 31.2148 112.066 31 111.301 31C110.535 31 109.848 31.2148 109.238 31.6445C108.629 32.0664 108.262 32.6289 108.137 33.332H114.441ZM119.48 29.0781H121.906V36.5898L126.207 29.0781H129.254V40H126.828V32.0547L122.293 40H119.48V29.0781ZM128.223 26.3242C127.16 27.3789 125.879 27.9062 124.379 27.9062C122.871 27.9062 121.59 27.3789 120.535 26.3242L121.953 24.9297C122.688 25.6641 123.496 26.0312 124.379 26.0312C125.262 26.0312 126.07 25.6641 126.805 24.9297L128.223 26.3242ZM142.906 34.6445H140.738V31.2695H138.676V37.8203H141.102V40H133.836V37.8203H136.25V31.2695H134.164V34.6445H132.008V29.0781H142.906V34.6445ZM145.684 29.0781H148.109V36.5898L152.41 29.0781H155.457V40H153.031V32.0547L148.496 40H145.684V29.0781ZM182.211 40H179.07L175.414 35.582L174.312 36.707V40H171.887V29.0781H174.312V33.707L178.684 29.0781H182.012L176.973 34.0938L182.211 40ZM208.719 34.5508C208.719 35.4023 208.582 36.1758 208.309 36.8711C208.043 37.5664 207.656 38.168 207.148 38.6758C206.648 39.1758 206.047 39.5664 205.344 39.8477C204.641 40.1289 203.855 40.2695 202.988 40.2695C202.137 40.2695 201.359 40.1289 200.656 39.8477C199.953 39.5664 199.348 39.1758 198.84 38.6758C198.34 38.168 197.953 37.5664 197.68 36.8711C197.414 36.1758 197.281 35.4023 197.281 34.5508C197.281 33.7227 197.414 32.957 197.68 32.2539C197.953 31.543 198.34 30.9336 198.84 30.4258C199.348 29.9102 199.953 29.5156 200.656 29.2422C201.359 28.9609 202.137 28.8203 202.988 28.8203C203.855 28.8203 204.641 28.9609 205.344 29.2422C206.047 29.5156 206.648 29.9102 207.148 30.4258C207.656 30.9336 208.043 31.543 208.309 32.2539C208.582 32.957 208.719 33.7227 208.719 34.5508ZM206.305 34.5508C206.305 34.0586 206.227 33.5938 206.07 33.1562C205.922 32.7109 205.703 32.332 205.414 32.0195C205.125 31.707 204.773 31.4609 204.359 31.2812C203.953 31.0938 203.496 31 202.988 31C202.473 31 202.012 31.0938 201.605 31.2812C201.199 31.4609 200.855 31.707 200.574 32.0195C200.293 32.332 200.074 32.7109 199.918 33.1562C199.77 33.5938 199.695 34.0586 199.695 34.5508C199.695 35.0664 199.77 35.5352 199.918 35.957C200.074 36.3789 200.293 36.75 200.574 37.0703C200.855 37.3906 201.199 37.6406 201.605 37.8203C202.012 37.9922 202.473 38.0781 202.988 38.0781C203.496 38.0781 203.953 37.9922 204.359 37.8203C204.773 37.6406 205.125 37.3906 205.414 37.0703C205.703 36.75 205.922 36.3789 206.07 35.957C206.227 35.5352 206.305 35.0664 206.305 34.5508ZM220.965 40H218.539V31.2695H213.617V40H211.191V29.0781H220.965V40ZM234.066 29.0781V40H231.641V31.2695H227.516V36.7656C227.516 37.3984 227.422 37.9414 227.234 38.3945C227.047 38.8398 226.797 39.1992 226.484 39.4727C226.18 39.7461 225.816 39.9453 225.395 40.0703C224.98 40.2031 224.535 40.2695 224.059 40.2695C223.402 40.2695 222.922 40.1719 222.617 39.9766L222.922 37.8906C223.039 37.9531 223.168 38 223.309 38.0312C223.441 38.0625 223.617 38.0781 223.836 38.0781C224.672 38.0781 225.09 37.6406 225.09 36.7656V29.0781H234.066ZM236.773 36.8594C236.773 36.2188 236.945 35.6602 237.289 35.1836C237.633 34.6992 238.082 34.2969 238.637 33.9766C239.199 33.6562 239.84 33.418 240.559 33.2617C241.285 33.0977 242.023 33.0156 242.773 33.0156C243.188 33.0156 243.543 33.0234 243.84 33.0391C244.137 33.0547 244.438 33.0781 244.742 33.1094V32.6758C244.742 32.1055 244.52 31.6797 244.074 31.3984C243.637 31.1172 243.059 30.9766 242.34 30.9766C241.684 30.9766 241.016 31.0703 240.336 31.2578C239.656 31.4375 239.012 31.7031 238.402 32.0547L237.418 30.1562C238.137 29.7422 238.906 29.418 239.727 29.1836C240.555 28.9414 241.426 28.8203 242.34 28.8203C242.934 28.8203 243.516 28.8867 244.086 29.0195C244.664 29.1523 245.18 29.3711 245.633 29.6758C246.094 29.9805 246.461 30.3789 246.734 30.8711C247.008 31.3555 247.145 31.957 247.145 32.6758V40H244.742V38.3945C244.359 38.9883 243.793 39.4492 243.043 39.7773C242.301 40.1055 241.5 40.2695 240.641 40.2695C240.109 40.2695 239.605 40.1953 239.129 40.0469C238.66 39.9062 238.254 39.6914 237.91 39.4023C237.566 39.1133 237.289 38.7578 237.078 38.3359C236.875 37.9062 236.773 37.4141 236.773 36.8594ZM241.262 38.1016C241.738 38.1016 242.184 38.043 242.598 37.9258C243.02 37.8008 243.391 37.6328 243.711 37.4219C244.031 37.2031 244.281 36.9414 244.461 36.6367C244.648 36.332 244.742 35.9961 244.742 35.6289V35.2188C244.359 35.1562 244 35.1211 243.664 35.1133C243.328 35.1055 243.031 35.1016 242.773 35.1016C241.586 35.1016 240.688 35.2578 240.078 35.5703C239.477 35.8828 239.176 36.2695 239.176 36.7305C239.176 37.6445 239.871 38.1016 241.262 38.1016ZM260.82 34.6445H258.652V31.2695H256.59V37.8203H259.016V40H251.75V37.8203H254.164V31.2695H252.078V34.6445H249.922V29.0781H260.82V34.6445ZM265.25 35.4648C265.367 36.2148 265.723 36.8398 266.316 37.3398C266.918 37.832 267.723 38.0781 268.73 38.0781C269.52 38.0781 270.203 37.957 270.781 37.7148C271.367 37.4648 271.871 37.1367 272.293 36.7305L273.535 38.4414C272.832 39.1445 272.086 39.625 271.297 39.8828C270.516 40.1406 269.66 40.2695 268.73 40.2695C267.887 40.2695 267.102 40.1289 266.375 39.8477C265.648 39.5664 265.02 39.1758 264.488 38.6758C263.957 38.168 263.539 37.5664 263.234 36.8711C262.938 36.1758 262.789 35.4023 262.789 34.5508C262.789 33.7227 262.926 32.9609 263.199 32.2656C263.48 31.5625 263.871 30.957 264.371 30.4492C264.879 29.9336 265.484 29.5352 266.188 29.2539C266.891 28.9648 267.668 28.8203 268.52 28.8203C269.402 28.8203 270.203 28.9727 270.922 29.2773C271.641 29.5742 272.254 30.0078 272.762 30.5781C273.277 31.1484 273.68 31.8477 273.969 32.6758C274.258 33.4961 274.402 34.4258 274.402 35.4648H265.25ZM271.66 33.332C271.535 32.6289 271.172 32.0664 270.57 31.6445C269.969 31.2148 269.285 31 268.52 31C267.754 31 267.066 31.2148 266.457 31.6445C265.848 32.0664 265.48 32.6289 265.355 33.332H271.66Z" fill="white"/>
</svg>
