<svg width="39" height="54" viewBox="0 0 39 54" fill="none" xmlns="http://www.w3.org/2000/svg">
<path fill-rule="evenodd" clip-rule="evenodd" d="M20.5747 52.9124C20.8049 52.8169 21.014 52.6769 21.1901 52.5005C24.6395 48.965 27.7993 45.1582 30.6388 41.1166C34.6942 35.3186 38.7988 27.7963 38.7988 20.8425C38.7988 14.0933 36.6119 8.84856 33.0531 5.28638C29.5093 1.73557 24.7414 -5.2177e-05 19.8484 -5.17493e-05C14.9554 -5.13216e-05 10.1875 1.73557 6.64372 5.28638C3.08483 8.84857 0.89795 14.0971 0.89795 20.8425C0.897951 27.7963 5.00262 35.3186 9.05801 41.1204C13.1703 47.0056 17.5175 51.5076 18.5067 52.5005C18.6827 52.6769 18.8919 52.8169 19.1221 52.9124C19.3523 53.008 19.5991 53.0571 19.8484 53.0571C20.0977 53.0571 20.3445 53.008 20.5747 52.9124ZM19.59 48.1439C19.6759 48.2371 19.7621 48.3301 19.8484 48.4229C19.9346 48.3302 20.0206 48.2374 20.1064 48.1443C20.0196 48.2163 19.9335 48.2864 19.8482 48.3546C19.7632 48.286 19.6771 48.2158 19.59 48.1439Z" fill="url(#paint0_linear_71_2970)"/>
<defs>
<linearGradient id="paint0_linear_71_2970" x1="63.0554" y1="53.3569" x2="-4.59397" y2="63.9574" gradientUnits="userSpaceOnUse">
<stop stop-color="#7C159D"/>
<stop offset="0.505437" stop-color="#AB0090"/>
<stop offset="1" stop-color="#C4075B"/>
</linearGradient>
</defs>
</svg>
