<svg width="343" height="64" viewBox="0 0 343 64" fill="none" xmlns="http://www.w3.org/2000/svg">
<rect width="343" height="64" fill="#72695F"/>
<path d="M90.3516 40H87.5156L83.5078 32.875L82.5 34.0703V40H80.0742V24.707H82.5V30.707L87.2578 24.707H90.375L85.043 31.0469L90.3516 40ZM93.1758 29.0781H95.6016V30.0625C96.0625 29.6484 96.5273 29.3398 96.9961 29.1367C97.4727 28.9258 98.0156 28.8203 98.625 28.8203C99.3281 28.8203 99.9805 28.9648 100.582 29.2539C101.184 29.5352 101.699 29.9297 102.129 30.4375C102.559 30.9375 102.898 31.543 103.148 32.2539C103.398 32.957 103.523 33.7227 103.523 34.5508C103.523 35.3867 103.398 36.1562 103.148 36.8594C102.898 37.5625 102.559 38.168 102.129 38.6758C101.699 39.1758 101.184 39.5664 100.582 39.8477C99.9805 40.1289 99.3281 40.2695 98.625 40.2695C98.0156 40.2695 97.4727 40.1602 96.9961 39.9414C96.5273 39.7227 96.0625 39.4062 95.6016 38.9922V44.3711H93.1758V29.0781ZM95.6016 37.0703C95.8906 37.3906 96.2578 37.6406 96.7031 37.8203C97.1562 37.9922 97.5898 38.0781 98.0039 38.0781C98.918 38.0781 99.6602 37.7539 100.23 37.1055C100.809 36.457 101.098 35.6055 101.098 34.5508C101.098 33.4961 100.809 32.6406 100.23 31.9844C99.6602 31.3281 98.918 31 98.0039 31C97.5898 31 97.1562 31.0859 96.7031 31.2578C96.2578 31.4219 95.8906 31.6641 95.6016 31.9844V37.0703ZM116.531 29.0781L111.82 42.1328C111.469 43.0781 110.957 43.7305 110.285 44.0898C109.613 44.4492 108.812 44.6289 107.883 44.6289C107.562 44.6289 107.219 44.5977 106.852 44.5352C106.484 44.4727 106.102 44.3672 105.703 44.2188L106.207 41.9922C106.543 42.1172 106.852 42.2031 107.133 42.25C107.414 42.3047 107.664 42.332 107.883 42.332C108.609 42.332 109.105 42.0039 109.371 41.3477L109.805 40.293L105.633 29.0781H108.152L111.152 37.3398L113.93 29.0781H116.531ZM129.703 34.6445H127.535V31.2695H125.473V37.8203H127.898V40H120.633V37.8203H123.047V31.2695H120.961V34.6445H118.805V29.0781H129.703V34.6445ZM132.48 29.0781H134.906V36.5898L139.207 29.0781H142.254V40H139.828V32.0547L135.293 40H132.48V29.0781ZM155.906 34.6445H153.738V31.2695H151.676V37.8203H154.102V40H146.836V37.8203H149.25V31.2695H147.164V34.6445H145.008V29.0781H155.906V34.6445ZM169.031 36.6367C169.031 37.7461 168.68 38.5859 167.977 39.1562C167.273 39.7188 166.289 40 165.023 40H158.684V29.0781H161.109V33.3086H165.047C166.297 33.3086 167.273 33.5859 167.977 34.1406C168.68 34.6875 169.031 35.5195 169.031 36.6367ZM166.605 36.6602C166.605 36.2617 166.465 35.9688 166.184 35.7812C165.902 35.5859 165.523 35.4883 165.047 35.4883H161.109V37.8203H165.047C165.523 37.8203 165.902 37.7227 166.184 37.5273C166.465 37.332 166.605 37.043 166.605 36.6602ZM195.211 40H192.07L188.414 35.582L187.312 36.707V40H184.887V29.0781H187.312V33.707L191.684 29.0781H195.012L189.973 34.0938L195.211 40ZM208.617 34.5508C208.617 35.4023 208.48 36.1758 208.207 36.8711C207.941 37.5664 207.555 38.168 207.047 38.6758C206.547 39.1758 205.945 39.5664 205.242 39.8477C204.539 40.1289 203.754 40.2695 202.887 40.2695C202.035 40.2695 201.258 40.1289 200.555 39.8477C199.852 39.5664 199.246 39.1758 198.738 38.6758C198.238 38.168 197.852 37.5664 197.578 36.8711C197.312 36.1758 197.18 35.4023 197.18 34.5508C197.18 33.7227 197.312 32.957 197.578 32.2539C197.852 31.543 198.238 30.9336 198.738 30.4258C199.246 29.9102 199.852 29.5156 200.555 29.2422C201.258 28.9609 202.035 28.8203 202.887 28.8203C203.754 28.8203 204.539 28.9609 205.242 29.2422C205.945 29.5156 206.547 29.9102 207.047 30.4258C207.555 30.9336 207.941 31.543 208.207 32.2539C208.48 32.957 208.617 33.7227 208.617 34.5508ZM206.203 34.5508C206.203 34.0586 206.125 33.5938 205.969 33.1562C205.82 32.7109 205.602 32.332 205.312 32.0195C205.023 31.707 204.672 31.4609 204.258 31.2812C203.852 31.0938 203.395 31 202.887 31C202.371 31 201.91 31.0938 201.504 31.2812C201.098 31.4609 200.754 31.707 200.473 32.0195C200.191 32.332 199.973 32.7109 199.816 33.1562C199.668 33.5938 199.594 34.0586 199.594 34.5508C199.594 35.0664 199.668 35.5352 199.816 35.957C199.973 36.3789 200.191 36.75 200.473 37.0703C200.754 37.3906 201.098 37.6406 201.504 37.8203C201.91 37.9922 202.371 38.0781 202.887 38.0781C203.395 38.0781 203.852 37.9922 204.258 37.8203C204.672 37.6406 205.023 37.3906 205.312 37.0703C205.602 36.75 205.82 36.3789 205.969 35.957C206.125 35.5352 206.203 35.0664 206.203 34.5508ZM220.863 29.0781V40H218.438V31.2695H214.312V36.7656C214.312 37.3984 214.219 37.9414 214.031 38.3945C213.844 38.8398 213.594 39.1992 213.281 39.4727C212.977 39.7461 212.613 39.9453 212.191 40.0703C211.777 40.2031 211.332 40.2695 210.855 40.2695C210.199 40.2695 209.719 40.1719 209.414 39.9766L209.719 37.8906C209.836 37.9531 209.965 38 210.105 38.0312C210.238 38.0625 210.414 38.0781 210.633 38.0781C211.469 38.0781 211.887 37.6406 211.887 36.7656V29.0781H220.863ZM225.844 35.4648C225.961 36.2148 226.316 36.8398 226.91 37.3398C227.512 37.832 228.316 38.0781 229.324 38.0781C230.113 38.0781 230.797 37.957 231.375 37.7148C231.961 37.4648 232.465 37.1367 232.887 36.7305L234.129 38.4414C233.426 39.1445 232.68 39.625 231.891 39.8828C231.109 40.1406 230.254 40.2695 229.324 40.2695C228.48 40.2695 227.695 40.1289 226.969 39.8477C226.242 39.5664 225.613 39.1758 225.082 38.6758C224.551 38.168 224.133 37.5664 223.828 36.8711C223.531 36.1758 223.383 35.4023 223.383 34.5508C223.383 33.7227 223.52 32.9609 223.793 32.2656C224.074 31.5625 224.465 30.957 224.965 30.4492C225.473 29.9336 226.078 29.5352 226.781 29.2539C227.484 28.9648 228.262 28.8203 229.113 28.8203C229.996 28.8203 230.797 28.9727 231.516 29.2773C232.234 29.5742 232.848 30.0078 233.355 30.5781C233.871 31.1484 234.273 31.8477 234.562 32.6758C234.852 33.4961 234.996 34.4258 234.996 35.4648H225.844ZM232.254 33.332C232.129 32.6289 231.766 32.0664 231.164 31.6445C230.562 31.2148 229.879 31 229.113 31C228.348 31 227.66 31.2148 227.051 31.6445C226.441 32.0664 226.074 32.6289 225.949 33.332H232.254ZM247.23 38.4414C246.527 39.1445 245.785 39.625 245.004 39.8828C244.23 40.1406 243.391 40.2695 242.484 40.2695C241.57 40.2695 240.738 40.1328 239.988 39.8594C239.246 39.5859 238.613 39.2031 238.09 38.7109C237.574 38.2109 237.176 37.6094 236.895 36.9062C236.621 36.2031 236.484 35.418 236.484 34.5508C236.484 33.7227 236.621 32.957 236.895 32.2539C237.176 31.543 237.551 30.9375 238.02 30.4375C238.496 29.9297 239.055 29.5352 239.695 29.2539C240.336 28.9648 241.016 28.8203 241.734 28.8203C242.484 28.8203 243.137 28.9766 243.691 29.2891C244.246 29.6016 244.648 30.0586 244.898 30.6602V29.0781H247.066V34.1641H244.898C244.898 33.2031 244.633 32.4375 244.102 31.8672C243.578 31.2891 242.895 31 242.051 31C241.715 31 241.359 31.0703 240.984 31.2109C240.617 31.3438 240.277 31.5547 239.965 31.8438C239.66 32.1328 239.406 32.5 239.203 32.9453C239 33.3906 238.898 33.9258 238.898 34.5508C238.898 35.1602 238.996 35.6875 239.191 36.1328C239.387 36.5703 239.641 36.9336 239.953 37.2227C240.273 37.5039 240.648 37.7188 241.078 37.8672C241.516 38.0078 241.965 38.0781 242.426 38.0781C243.215 38.0781 243.898 37.957 244.477 37.7148C245.062 37.4648 245.566 37.1367 245.988 36.7305L247.23 38.4414ZM261.023 34.5508C261.023 35.4023 260.887 36.1758 260.613 36.8711C260.348 37.5664 259.961 38.168 259.453 38.6758C258.953 39.1758 258.352 39.5664 257.648 39.8477C256.945 40.1289 256.16 40.2695 255.293 40.2695C254.441 40.2695 253.664 40.1289 252.961 39.8477C252.258 39.5664 251.652 39.1758 251.145 38.6758C250.645 38.168 250.258 37.5664 249.984 36.8711C249.719 36.1758 249.586 35.4023 249.586 34.5508C249.586 33.7227 249.719 32.957 249.984 32.2539C250.258 31.543 250.645 30.9336 251.145 30.4258C251.652 29.9102 252.258 29.5156 252.961 29.2422C253.664 28.9609 254.441 28.8203 255.293 28.8203C256.16 28.8203 256.945 28.9609 257.648 29.2422C258.352 29.5156 258.953 29.9102 259.453 30.4258C259.961 30.9336 260.348 31.543 260.613 32.2539C260.887 32.957 261.023 33.7227 261.023 34.5508ZM258.609 34.5508C258.609 34.0586 258.531 33.5938 258.375 33.1562C258.227 32.7109 258.008 32.332 257.719 32.0195C257.43 31.707 257.078 31.4609 256.664 31.2812C256.258 31.0938 255.801 31 255.293 31C254.777 31 254.316 31.0938 253.91 31.2812C253.504 31.4609 253.16 31.707 252.879 32.0195C252.598 32.332 252.379 32.7109 252.223 33.1562C252.074 33.5938 252 34.0586 252 34.5508C252 35.0664 252.074 35.5352 252.223 35.957C252.379 36.3789 252.598 36.75 252.879 37.0703C253.16 37.3906 253.504 37.6406 253.91 37.8203C254.316 37.9922 254.777 38.0781 255.293 38.0781C255.801 38.0781 256.258 37.9922 256.664 37.8203C257.078 37.6406 257.43 37.3906 257.719 37.0703C258.008 36.75 258.227 36.3789 258.375 35.957C258.531 35.5352 258.609 35.0664 258.609 34.5508Z" fill="white"/>
</svg>
