<svg width="281" height="59" viewBox="0 0 281 59" fill="none" xmlns="http://www.w3.org/2000/svg">
<path d="M0 4C0 1.79086 1.79086 0 4 0H277C279.209 0 281 1.79086 281 4V55C281 57.2091 279.209 59 277 59H4.00001C1.79087 59 0 57.2091 0 55V4Z" fill="url(#paint0_linear_71_4204)"/>
<path d="M57.9766 37H53.7227C53.332 36.5078 52.9727 36.0156 52.6445 35.5234C52.3164 35.0234 52 34.5234 51.6953 34.0234C51.3984 33.5234 51.1016 33.0273 50.8047 32.5352C50.5156 32.043 50.2109 31.5547 49.8906 31.0703C49.7031 30.7891 49.5273 30.5703 49.3633 30.4141C49.207 30.2578 49.0078 30.1406 48.7656 30.0625C48.5312 29.9844 48.2305 29.9375 47.8633 29.9219C47.4961 29.9062 47.0078 29.8984 46.3984 29.8984V34.0469C46.3984 34.3906 46.4297 34.6836 46.4922 34.9258C46.5625 35.1602 46.6836 35.3516 46.8555 35.5C47.0273 35.6484 47.2617 35.7578 47.5586 35.8281C47.8633 35.8906 48.2461 35.9219 48.707 35.9219V37H40.7617V35.9219C41.2773 35.9141 41.6836 35.875 41.9805 35.8047C42.2852 35.7266 42.5117 35.6133 42.6602 35.4648C42.8164 35.3164 42.918 35.125 42.9648 34.8906C43.0117 34.6562 43.0391 34.375 43.0469 34.0469V24.0625C43.0469 23.7344 43.0234 23.4531 42.9766 23.2188C42.9375 22.9844 42.8398 22.7969 42.6836 22.6562C42.5273 22.5078 42.2969 22.3984 41.9922 22.3281C41.6953 22.25 41.2852 22.2031 40.7617 22.1875V21.1094H48.707V22.1875C47.7305 22.1875 47.1016 22.3281 46.8203 22.6094C46.5391 22.8906 46.3984 23.375 46.3984 24.0625V28.2578C46.5312 28.2578 46.6875 28.2266 46.8672 28.1641C47.0469 28.0938 47.2773 27.957 47.5586 27.7539C47.8398 27.5508 48.1797 27.2578 48.5781 26.875C48.9766 26.4844 49.4648 25.9727 50.043 25.3398C50.4023 24.9336 50.6992 24.5859 50.9336 24.2969C51.168 24.0078 51.3789 23.7461 51.5664 23.5117C51.7617 23.2695 51.9609 23.0391 52.1641 22.8203C52.375 22.5938 52.6328 22.3438 52.9375 22.0703C53.1953 21.8438 53.4414 21.6523 53.6758 21.4961C53.9102 21.332 54.1445 21.2031 54.3789 21.1094C54.6133 21.0078 54.8555 20.9375 55.1055 20.8984C55.3633 20.8516 55.6406 20.8281 55.9375 20.8281C56.0938 20.8281 56.2422 20.8477 56.3828 20.8867C56.5312 20.918 56.6602 20.9727 56.7695 21.0508C56.8789 21.1289 56.9648 21.2266 57.0273 21.3438C57.0898 21.4531 57.1211 21.5898 57.1211 21.7539C57.1211 21.9805 57.0664 22.1914 56.957 22.3867C56.8555 22.582 56.6445 22.7383 56.3242 22.8555C55.9727 22.9805 55.6289 23.0742 55.293 23.1367C54.957 23.1914 54.6641 23.2695 54.4141 23.3711C54.2734 23.4258 54.1211 23.4883 53.957 23.5586C53.793 23.6289 53.6211 23.7188 53.4414 23.8281C53.2617 23.9297 53.0703 24.0586 52.8672 24.2148C52.6719 24.3633 52.4727 24.543 52.2695 24.7539C52.0898 24.9414 51.875 25.1797 51.625 25.4688C51.375 25.7578 51.0859 26.0742 50.7578 26.418C50.4375 26.7539 50.0859 27.1016 49.7031 27.4609C49.3203 27.8203 48.9141 28.1562 48.4844 28.4688C48.5703 28.4609 48.6523 28.457 48.7305 28.457C48.8164 28.4492 48.8984 28.4453 48.9766 28.4453C49.4141 28.4453 49.8125 28.4727 50.1719 28.5273C50.5391 28.582 50.8828 28.6836 51.2031 28.832C51.5312 28.9727 51.8398 29.1758 52.1289 29.4414C52.418 29.6992 52.7109 30.0391 53.0078 30.4609C53.5156 31.1953 54.0156 31.9375 54.5078 32.6875C55 33.4375 55.5234 34.1797 56.0781 34.9141C56.2031 35.0781 56.3438 35.2266 56.5 35.3594C56.6562 35.4844 56.8164 35.5898 56.9805 35.6758C57.1523 35.7539 57.3203 35.8164 57.4844 35.8633C57.6562 35.9023 57.8203 35.9219 57.9766 35.9219V37ZM71.6055 32.0312C71.6055 32.9922 71.3789 33.8867 70.9258 34.7148C70.4805 35.5352 69.8594 36.1875 69.0625 36.6719C68.2734 37.1484 67.3867 37.3867 66.4023 37.3867C65.168 37.3867 64.0938 36.9531 63.1797 36.0859V39.8359C63.1797 40.2812 63.207 40.6133 63.2617 40.832C63.3242 41.0586 63.457 41.2266 63.6602 41.3359C63.8711 41.4531 64.1914 41.5117 64.6211 41.5117H65.2656V42.5898H58.457V41.5117C58.9883 41.5117 59.3711 41.4648 59.6055 41.3711C59.8398 41.2852 59.9883 41.1328 60.0508 40.9141C60.1211 40.6953 60.1562 40.3359 60.1562 39.8359V30.6602C60.1562 30.207 60.1211 29.8789 60.0508 29.6758C59.9883 29.4727 59.8398 29.3281 59.6055 29.2422C59.3789 29.1484 58.9961 29.1016 58.457 29.1016V28.0234L63.0156 27.0156C63.1094 27.3281 63.1641 27.8242 63.1797 28.5039C63.6953 27.9883 64.2266 27.6133 64.7734 27.3789C65.3281 27.1367 65.9648 27.0156 66.6836 27.0156C67.4648 27.0156 68.1641 27.1562 68.7812 27.4375C69.3984 27.7188 69.9141 28.0977 70.3281 28.5742C70.7422 29.043 71.0586 29.582 71.2773 30.1914C71.4961 30.793 71.6055 31.4062 71.6055 32.0312ZM68.3711 31.9141C68.3711 29.5156 67.5312 28.3164 65.8516 28.3164C65.3047 28.3164 64.8008 28.4766 64.3398 28.7969C63.8867 29.1094 63.5 29.4922 63.1797 29.9453V34.5742C63.4844 35.0352 63.8789 35.4023 64.3633 35.6758C64.8555 35.9492 65.3594 36.0859 65.875 36.0859C67.5391 36.0859 68.3711 34.6953 68.3711 31.9141ZM85.0352 28.4805C84.6992 28.5273 84.4375 28.6133 84.25 28.7383C84.0625 28.8633 83.8906 29.0586 83.7344 29.3242C83.5859 29.582 83.3164 30.1094 82.9258 30.9062L79.4922 38.0312C78.7266 39.6016 78.2031 40.6445 77.9219 41.1602C77.6484 41.6836 77.3359 42.0977 76.9844 42.4023C76.6328 42.707 76.1953 42.8594 75.6719 42.8594C75.3125 42.8594 75 42.75 74.7344 42.5312C74.4688 42.3125 74.3359 42.0352 74.3359 41.6992C74.3359 41.2227 74.4961 40.875 74.8164 40.6562C75.1445 40.4453 75.5664 40.2656 76.082 40.1172C76.7773 39.9141 77.3086 39.543 77.6758 39.0039C78.043 38.4648 78.3594 37.875 78.625 37.2344L74.1602 29.3711C73.9492 28.9883 73.7578 28.7461 73.5859 28.6445C73.4141 28.5352 73.1758 28.4805 72.8711 28.4805V27.4023H78.5547V28.4805H78.1914C77.6523 28.4805 77.3828 28.6094 77.3828 28.8672C77.3828 29.0234 77.4922 29.293 77.7109 29.6758L80.1836 34.0234L82.0117 30.3086C82.2695 29.7773 82.3984 29.4141 82.3984 29.2188C82.3984 28.9844 82.2812 28.8047 82.0469 28.6797C81.8203 28.5469 81.5508 28.4805 81.2383 28.4805V27.4023H85.0352V28.4805ZM86.0312 27.4023H97.6797L97.7852 31.5273H96.7891C96.6484 30.8711 96.5 30.3555 96.3438 29.9805C96.1953 29.6055 96.0117 29.3242 95.793 29.1367C95.5742 28.9414 95.3047 28.8203 94.9844 28.7734C94.6719 28.7266 94.2812 28.7031 93.8125 28.7031H93.3672V34.0469C93.3672 34.6797 93.4805 35.1523 93.707 35.4648C93.8164 35.6211 93.9922 35.7383 94.2344 35.8164C94.4844 35.8867 94.7344 35.9219 94.9844 35.9219V37H88.7266V35.9219C88.9766 35.9219 89.2227 35.8867 89.4648 35.8164C89.7148 35.7383 89.8945 35.6211 90.0039 35.4648C90.2305 35.1523 90.3438 34.6797 90.3438 34.0469V28.7031H89.8984C89.4297 28.7031 89.0352 28.7266 88.7148 28.7734C88.4023 28.8203 88.1367 28.9414 87.918 29.1367C87.6992 29.3242 87.5117 29.6055 87.3555 29.9805C87.207 30.3555 87.0625 30.8711 86.9219 31.5273H85.9258L86.0312 27.4023ZM112.387 28.4805C111.996 28.4961 111.688 28.5234 111.461 28.5625C111.234 28.6016 111.062 28.6797 110.945 28.7969C110.828 28.9141 110.75 29.082 110.711 29.3008C110.68 29.5195 110.664 29.8164 110.664 30.1914V34.2109C110.664 34.5859 110.68 34.8828 110.711 35.1016C110.75 35.3203 110.828 35.4883 110.945 35.6055C111.062 35.7227 111.234 35.8047 111.461 35.8516C111.688 35.8906 111.996 35.9141 112.387 35.9219V37H106.199V35.9219C106.504 35.9219 106.746 35.8984 106.926 35.8516C107.113 35.7969 107.258 35.707 107.359 35.582C107.469 35.457 107.539 35.293 107.57 35.0898C107.609 34.8789 107.629 34.6211 107.629 34.3164V31.3516L103.645 34.6328C103.652 34.8828 103.68 35.0898 103.727 35.2539C103.781 35.418 103.859 35.5508 103.961 35.6523C104.07 35.7461 104.215 35.8164 104.395 35.8633C104.574 35.9023 104.801 35.9219 105.074 35.9219V37H98.8867V35.9219C99.2695 35.9141 99.5742 35.8906 99.8008 35.8516C100.035 35.8047 100.211 35.7227 100.328 35.6055C100.445 35.4883 100.52 35.3203 100.551 35.1016C100.59 34.8828 100.609 34.5859 100.609 34.2109V30.1914C100.609 29.8164 100.59 29.5195 100.551 29.3008C100.52 29.082 100.445 28.9141 100.328 28.7969C100.211 28.6797 100.035 28.6016 99.8008 28.5625C99.5742 28.5234 99.2695 28.4961 98.8867 28.4805V27.4023H105.074V28.4805C104.77 28.4805 104.523 28.5078 104.336 28.5625C104.156 28.6094 104.012 28.6953 103.902 28.8203C103.801 28.9453 103.73 29.1133 103.691 29.3242C103.66 29.5273 103.645 29.7812 103.645 30.0859V32.9453L107.617 29.6758C107.602 29.4492 107.566 29.2617 107.512 29.1133C107.465 28.957 107.387 28.832 107.277 28.7383C107.176 28.6445 107.035 28.5781 106.855 28.5391C106.684 28.5 106.465 28.4805 106.199 28.4805V27.4023H112.387V28.4805ZM113.594 27.4023H125.242L125.348 31.5273H124.352C124.211 30.8711 124.062 30.3555 123.906 29.9805C123.758 29.6055 123.574 29.3242 123.355 29.1367C123.137 28.9414 122.867 28.8203 122.547 28.7734C122.234 28.7266 121.844 28.7031 121.375 28.7031H120.93V34.0469C120.93 34.6797 121.043 35.1523 121.27 35.4648C121.379 35.6211 121.555 35.7383 121.797 35.8164C122.047 35.8867 122.297 35.9219 122.547 35.9219V37H116.289V35.9219C116.539 35.9219 116.785 35.8867 117.027 35.8164C117.277 35.7383 117.457 35.6211 117.566 35.4648C117.793 35.1523 117.906 34.6797 117.906 34.0469V28.7031H117.461C116.992 28.7031 116.598 28.7266 116.277 28.7734C115.965 28.8203 115.699 28.9414 115.48 29.1367C115.262 29.3242 115.074 29.6055 114.918 29.9805C114.77 30.3555 114.625 30.8711 114.484 31.5273H113.488L113.594 27.4023ZM126.449 27.4023H132.637V28.4805C132.332 28.4805 132.086 28.5078 131.898 28.5625C131.719 28.6094 131.574 28.6953 131.465 28.8203C131.363 28.9453 131.293 29.1133 131.254 29.3242C131.223 29.5273 131.207 29.7812 131.207 30.0859V31.4336H132.531C133.609 31.4336 134.547 31.4844 135.344 31.5859C136.148 31.6797 136.812 31.8398 137.336 32.0664C137.867 32.2852 138.262 32.5781 138.52 32.9453C138.785 33.3047 138.918 33.75 138.918 34.2812C138.918 34.8359 138.746 35.2891 138.402 35.6406C138.066 35.9922 137.621 36.2695 137.066 36.4727C136.52 36.668 135.898 36.8047 135.203 36.8828C134.516 36.9609 133.82 37 133.117 37H126.449V35.9219C126.832 35.9141 127.137 35.8906 127.363 35.8516C127.598 35.8047 127.773 35.7227 127.891 35.6055C128.008 35.4883 128.082 35.3203 128.113 35.1016C128.152 34.8828 128.172 34.5859 128.172 34.2109V30.1914C128.172 29.8164 128.152 29.5195 128.113 29.3008C128.082 29.082 128.008 28.9141 127.891 28.7969C127.773 28.6797 127.598 28.6016 127.363 28.5625C127.137 28.5234 126.832 28.4961 126.449 28.4805V27.4023ZM135.473 34.2227C135.473 33.6523 135.258 33.1992 134.828 32.8633C134.398 32.5273 133.785 32.3594 132.988 32.3594H131.207V34.6562C131.207 34.8828 131.234 35.0781 131.289 35.2422C131.344 35.3984 131.441 35.5273 131.582 35.6289C131.723 35.7305 131.91 35.8047 132.145 35.8516C132.387 35.8984 132.691 35.9219 133.059 35.9219C133.301 35.9219 133.562 35.8945 133.844 35.8398C134.125 35.7852 134.387 35.6914 134.629 35.5586C134.871 35.4258 135.07 35.25 135.227 35.0312C135.391 34.8125 135.473 34.543 135.473 34.2227ZM158.23 32.1719C158.23 32.9609 158.082 33.6797 157.785 34.3281C157.488 34.9688 157.082 35.5156 156.566 35.9688C156.051 36.4219 155.449 36.7695 154.762 37.0117C154.074 37.2617 153.34 37.3867 152.559 37.3867C151.84 37.3867 151.129 37.2773 150.426 37.0586C149.723 36.8477 149.094 36.5156 148.539 36.0625C147.984 35.6016 147.535 35.0156 147.191 34.3047C146.855 33.5938 146.688 32.7383 146.688 31.7383C146.688 30.918 146.742 30.0352 146.852 29.0898C146.961 28.1445 147.176 27.1484 147.496 26.1016C147.668 25.5156 147.852 24.9922 148.047 24.5312C148.242 24.0625 148.484 23.668 148.773 23.3477C149.07 23.0195 149.438 22.7695 149.875 22.5977C150.32 22.4258 150.879 22.3398 151.551 22.3398C151.879 22.3398 152.191 22.3477 152.488 22.3633C152.793 22.3789 153.09 22.3867 153.379 22.3867C153.801 22.3867 154.207 22.3516 154.598 22.2812C154.996 22.2031 155.402 22.0391 155.816 21.7891C156.066 21.6406 156.277 21.4531 156.449 21.2266C156.629 21 156.801 20.7656 156.965 20.5234L157.609 21.1211C157.523 21.3711 157.43 21.6289 157.328 21.8945C157.227 22.1602 157.109 22.4062 156.977 22.6328C156.758 23 156.516 23.2969 156.25 23.5234C155.992 23.7422 155.715 23.9141 155.418 24.0391C155.121 24.1641 154.805 24.25 154.469 24.2969C154.133 24.3438 153.785 24.3789 153.426 24.4023C153.074 24.418 152.711 24.4336 152.336 24.4492C151.961 24.4648 151.578 24.5039 151.188 24.5664C150.625 24.6523 150.168 24.8359 149.816 25.1172C149.473 25.3984 149.195 25.7422 148.984 26.1484C148.781 26.5547 148.625 27.0078 148.516 27.5078C148.406 28.0078 148.301 28.5234 148.199 29.0547C148.504 28.6641 148.832 28.3398 149.184 28.082C149.543 27.8164 149.91 27.6055 150.285 27.4492C150.66 27.293 151.039 27.1836 151.422 27.1211C151.805 27.0508 152.18 27.0156 152.547 27.0156C153.445 27.0156 154.246 27.1562 154.949 27.4375C155.652 27.7109 156.246 28.082 156.73 28.5508C157.223 29.0195 157.594 29.5664 157.844 30.1914C158.102 30.8164 158.23 31.4766 158.23 32.1719ZM154.996 32.1016C154.996 31.4453 154.957 30.8672 154.879 30.3672C154.809 29.8672 154.676 29.4492 154.48 29.1133C154.285 28.7773 154.02 28.5234 153.684 28.3516C153.355 28.1797 152.934 28.0938 152.418 28.0938C151.926 28.0938 151.52 28.1758 151.199 28.3398C150.879 28.5039 150.625 28.7578 150.438 29.1016C150.25 29.4375 150.117 29.8711 150.039 30.4023C149.961 30.9258 149.922 31.5508 149.922 32.2773C149.922 32.5664 149.93 32.8672 149.945 33.1797C149.961 33.4922 149.996 33.7969 150.051 34.0938C150.113 34.3906 150.199 34.6758 150.309 34.9492C150.426 35.2148 150.578 35.4492 150.766 35.6523C150.961 35.8555 151.199 36.0156 151.48 36.1328C151.762 36.25 152.102 36.3086 152.5 36.3086C153.047 36.3086 153.484 36.1914 153.812 35.957C154.141 35.7227 154.391 35.4102 154.562 35.0195C154.742 34.6289 154.859 34.1836 154.914 33.6836C154.969 33.1758 154.996 32.6484 154.996 32.1016ZM172.234 34.5273C172.234 35.1211 172.113 35.6289 171.871 36.0508C171.629 36.4648 171.301 36.7734 170.887 36.9766C170.48 37.1719 170.02 37.2695 169.504 37.2695C168.848 37.2695 168.301 37.1172 167.863 36.8125C167.426 36.5 167.164 36.1289 167.078 35.6992C165.773 36.7461 164.461 37.2695 163.141 37.2695C162.297 37.2695 161.605 37.0664 161.066 36.6602C160.527 36.2461 160.258 35.7031 160.258 35.0312C160.258 34.4766 160.402 33.9766 160.691 33.5312C160.98 33.0781 161.402 32.6758 161.957 32.3242C162.52 31.9727 163.188 31.6641 163.961 31.3984C164.734 31.125 165.699 30.8398 166.855 30.543V29.875C166.855 29.3203 166.723 28.8867 166.457 28.5742C166.199 28.2539 165.719 28.0938 165.016 28.0938C164.414 28.0938 163.98 28.2188 163.715 28.4688C163.449 28.7188 163.273 29.0977 163.188 29.6055C163.125 29.9648 163.008 30.2617 162.836 30.4961C162.672 30.7227 162.324 30.8359 161.793 30.8359C161.465 30.8359 161.176 30.7422 160.926 30.5547C160.676 30.3672 160.551 30.0898 160.551 29.7227C160.551 28.9961 160.945 28.3633 161.734 27.8242C162.523 27.2852 163.734 27.0156 165.367 27.0156C167.086 27.0156 168.266 27.3047 168.906 27.8828C169.555 28.4609 169.879 29.2344 169.879 30.2031V33.9062C169.879 34.375 169.891 34.7188 169.914 34.9375C169.938 35.1562 170 35.3242 170.102 35.4414C170.211 35.5508 170.379 35.6055 170.605 35.6055C170.809 35.6055 170.984 35.5 171.133 35.2891C171.289 35.0781 171.367 34.8242 171.367 34.5273H172.234ZM166.855 34.6211V31.7148C165.371 32.1836 164.426 32.6445 164.02 33.0977C163.621 33.543 163.422 33.9805 163.422 34.4102C163.422 34.7695 163.531 35.0586 163.75 35.2773C163.969 35.4961 164.277 35.6055 164.676 35.6055C165.105 35.6055 165.484 35.5156 165.812 35.3359C166.141 35.1562 166.488 34.918 166.855 34.6211ZM185.77 32.0312C185.77 32.9922 185.543 33.8867 185.09 34.7148C184.645 35.5352 184.023 36.1875 183.227 36.6719C182.438 37.1484 181.551 37.3867 180.566 37.3867C179.332 37.3867 178.258 36.9531 177.344 36.0859V39.8359C177.344 40.2812 177.371 40.6133 177.426 40.832C177.488 41.0586 177.621 41.2266 177.824 41.3359C178.035 41.4531 178.355 41.5117 178.785 41.5117H179.43V42.5898H172.621V41.5117C173.152 41.5117 173.535 41.4648 173.77 41.3711C174.004 41.2852 174.152 41.1328 174.215 40.9141C174.285 40.6953 174.32 40.3359 174.32 39.8359V30.6602C174.32 30.207 174.285 29.8789 174.215 29.6758C174.152 29.4727 174.004 29.3281 173.77 29.2422C173.543 29.1484 173.16 29.1016 172.621 29.1016V28.0234L177.18 27.0156C177.273 27.3281 177.328 27.8242 177.344 28.5039C177.859 27.9883 178.391 27.6133 178.938 27.3789C179.492 27.1367 180.129 27.0156 180.848 27.0156C181.629 27.0156 182.328 27.1562 182.945 27.4375C183.562 27.7188 184.078 28.0977 184.492 28.5742C184.906 29.043 185.223 29.582 185.441 30.1914C185.66 30.793 185.77 31.4062 185.77 32.0312ZM182.535 31.9141C182.535 29.5156 181.695 28.3164 180.016 28.3164C179.469 28.3164 178.965 28.4766 178.504 28.7969C178.051 29.1094 177.664 29.4922 177.344 29.9453V34.5742C177.648 35.0352 178.043 35.4023 178.527 35.6758C179.02 35.9492 179.523 36.0859 180.039 36.0859C181.703 36.0859 182.535 34.6953 182.535 31.9141ZM199.75 34.5273C199.75 35.1211 199.629 35.6289 199.387 36.0508C199.145 36.4648 198.816 36.7734 198.402 36.9766C197.996 37.1719 197.535 37.2695 197.02 37.2695C196.363 37.2695 195.816 37.1172 195.379 36.8125C194.941 36.5 194.68 36.1289 194.594 35.6992C193.289 36.7461 191.977 37.2695 190.656 37.2695C189.812 37.2695 189.121 37.0664 188.582 36.6602C188.043 36.2461 187.773 35.7031 187.773 35.0312C187.773 34.4766 187.918 33.9766 188.207 33.5312C188.496 33.0781 188.918 32.6758 189.473 32.3242C190.035 31.9727 190.703 31.6641 191.477 31.3984C192.25 31.125 193.215 30.8398 194.371 30.543V29.875C194.371 29.3203 194.238 28.8867 193.973 28.5742C193.715 28.2539 193.234 28.0938 192.531 28.0938C191.93 28.0938 191.496 28.2188 191.23 28.4688C190.965 28.7188 190.789 29.0977 190.703 29.6055C190.641 29.9648 190.523 30.2617 190.352 30.4961C190.188 30.7227 189.84 30.8359 189.309 30.8359C188.98 30.8359 188.691 30.7422 188.441 30.5547C188.191 30.3672 188.066 30.0898 188.066 29.7227C188.066 28.9961 188.461 28.3633 189.25 27.8242C190.039 27.2852 191.25 27.0156 192.883 27.0156C194.602 27.0156 195.781 27.3047 196.422 27.8828C197.07 28.4609 197.395 29.2344 197.395 30.2031V33.9062C197.395 34.375 197.406 34.7188 197.43 34.9375C197.453 35.1562 197.516 35.3242 197.617 35.4414C197.727 35.5508 197.895 35.6055 198.121 35.6055C198.324 35.6055 198.5 35.5 198.648 35.2891C198.805 35.0781 198.883 34.8242 198.883 34.5273H199.75ZM194.371 34.6211V31.7148C192.887 32.1836 191.941 32.6445 191.535 33.0977C191.137 33.543 190.938 33.9805 190.938 34.4102C190.938 34.7695 191.047 35.0586 191.266 35.2773C191.484 35.4961 191.793 35.6055 192.191 35.6055C192.621 35.6055 193 35.5156 193.328 35.3359C193.656 35.1562 194.004 34.918 194.371 34.6211ZM212.277 32.1719C212.277 32.9609 212.129 33.6797 211.832 34.3281C211.535 34.9688 211.129 35.5156 210.613 35.9688C210.098 36.4219 209.496 36.7695 208.809 37.0117C208.121 37.2617 207.387 37.3867 206.605 37.3867C205.887 37.3867 205.176 37.2773 204.473 37.0586C203.77 36.8477 203.141 36.5156 202.586 36.0625C202.031 35.6016 201.582 35.0156 201.238 34.3047C200.902 33.5938 200.734 32.7383 200.734 31.7383C200.734 30.918 200.789 30.0352 200.898 29.0898C201.008 28.1445 201.223 27.1484 201.543 26.1016C201.715 25.5156 201.898 24.9922 202.094 24.5312C202.289 24.0625 202.531 23.668 202.82 23.3477C203.117 23.0195 203.484 22.7695 203.922 22.5977C204.367 22.4258 204.926 22.3398 205.598 22.3398C205.926 22.3398 206.238 22.3477 206.535 22.3633C206.84 22.3789 207.137 22.3867 207.426 22.3867C207.848 22.3867 208.254 22.3516 208.645 22.2812C209.043 22.2031 209.449 22.0391 209.863 21.7891C210.113 21.6406 210.324 21.4531 210.496 21.2266C210.676 21 210.848 20.7656 211.012 20.5234L211.656 21.1211C211.57 21.3711 211.477 21.6289 211.375 21.8945C211.273 22.1602 211.156 22.4062 211.023 22.6328C210.805 23 210.562 23.2969 210.297 23.5234C210.039 23.7422 209.762 23.9141 209.465 24.0391C209.168 24.1641 208.852 24.25 208.516 24.2969C208.18 24.3438 207.832 24.3789 207.473 24.4023C207.121 24.418 206.758 24.4336 206.383 24.4492C206.008 24.4648 205.625 24.5039 205.234 24.5664C204.672 24.6523 204.215 24.8359 203.863 25.1172C203.52 25.3984 203.242 25.7422 203.031 26.1484C202.828 26.5547 202.672 27.0078 202.562 27.5078C202.453 28.0078 202.348 28.5234 202.246 29.0547C202.551 28.6641 202.879 28.3398 203.23 28.082C203.59 27.8164 203.957 27.6055 204.332 27.4492C204.707 27.293 205.086 27.1836 205.469 27.1211C205.852 27.0508 206.227 27.0156 206.594 27.0156C207.492 27.0156 208.293 27.1562 208.996 27.4375C209.699 27.7109 210.293 28.082 210.777 28.5508C211.27 29.0195 211.641 29.5664 211.891 30.1914C212.148 30.8164 212.277 31.4766 212.277 32.1719ZM209.043 32.1016C209.043 31.4453 209.004 30.8672 208.926 30.3672C208.855 29.8672 208.723 29.4492 208.527 29.1133C208.332 28.7773 208.066 28.5234 207.73 28.3516C207.402 28.1797 206.98 28.0938 206.465 28.0938C205.973 28.0938 205.566 28.1758 205.246 28.3398C204.926 28.5039 204.672 28.7578 204.484 29.1016C204.297 29.4375 204.164 29.8711 204.086 30.4023C204.008 30.9258 203.969 31.5508 203.969 32.2773C203.969 32.5664 203.977 32.8672 203.992 33.1797C204.008 33.4922 204.043 33.7969 204.098 34.0938C204.16 34.3906 204.246 34.6758 204.355 34.9492C204.473 35.2148 204.625 35.4492 204.812 35.6523C205.008 35.8555 205.246 36.0156 205.527 36.1328C205.809 36.25 206.148 36.3086 206.547 36.3086C207.094 36.3086 207.531 36.1914 207.859 35.957C208.188 35.7227 208.438 35.4102 208.609 35.0195C208.789 34.6289 208.906 34.1836 208.961 33.6836C209.016 33.1758 209.043 32.6484 209.043 32.1016ZM226.281 34.5273C226.281 35.1211 226.16 35.6289 225.918 36.0508C225.676 36.4648 225.348 36.7734 224.934 36.9766C224.527 37.1719 224.066 37.2695 223.551 37.2695C222.895 37.2695 222.348 37.1172 221.91 36.8125C221.473 36.5 221.211 36.1289 221.125 35.6992C219.82 36.7461 218.508 37.2695 217.188 37.2695C216.344 37.2695 215.652 37.0664 215.113 36.6602C214.574 36.2461 214.305 35.7031 214.305 35.0312C214.305 34.4766 214.449 33.9766 214.738 33.5312C215.027 33.0781 215.449 32.6758 216.004 32.3242C216.566 31.9727 217.234 31.6641 218.008 31.3984C218.781 31.125 219.746 30.8398 220.902 30.543V29.875C220.902 29.3203 220.77 28.8867 220.504 28.5742C220.246 28.2539 219.766 28.0938 219.062 28.0938C218.461 28.0938 218.027 28.2188 217.762 28.4688C217.496 28.7188 217.32 29.0977 217.234 29.6055C217.172 29.9648 217.055 30.2617 216.883 30.4961C216.719 30.7227 216.371 30.8359 215.84 30.8359C215.512 30.8359 215.223 30.7422 214.973 30.5547C214.723 30.3672 214.598 30.0898 214.598 29.7227C214.598 28.9961 214.992 28.3633 215.781 27.8242C216.57 27.2852 217.781 27.0156 219.414 27.0156C221.133 27.0156 222.312 27.3047 222.953 27.8828C223.602 28.4609 223.926 29.2344 223.926 30.2031V33.9062C223.926 34.375 223.938 34.7188 223.961 34.9375C223.984 35.1562 224.047 35.3242 224.148 35.4414C224.258 35.5508 224.426 35.6055 224.652 35.6055C224.855 35.6055 225.031 35.5 225.18 35.2891C225.336 35.0781 225.414 34.8242 225.414 34.5273H226.281ZM220.902 34.6211V31.7148C219.418 32.1836 218.473 32.6445 218.066 33.0977C217.668 33.543 217.469 33.9805 217.469 34.4102C217.469 34.7695 217.578 35.0586 217.797 35.2773C218.016 35.4961 218.324 35.6055 218.723 35.6055C219.152 35.6055 219.531 35.5156 219.859 35.3359C220.188 35.1562 220.535 34.918 220.902 34.6211ZM240.285 28.4805C239.895 28.4961 239.586 28.5234 239.359 28.5625C239.133 28.6016 238.961 28.6797 238.844 28.7969C238.727 28.9141 238.648 29.082 238.609 29.3008C238.578 29.5195 238.562 29.8164 238.562 30.1914V34.2109C238.562 34.5859 238.578 34.8828 238.609 35.1016C238.648 35.3203 238.727 35.4883 238.844 35.6055C238.961 35.7227 239.133 35.8047 239.359 35.8516C239.586 35.8906 239.895 35.9141 240.285 35.9219V37H234.098V35.9219C234.402 35.9219 234.645 35.8984 234.824 35.8516C235.012 35.7969 235.156 35.707 235.258 35.582C235.367 35.457 235.438 35.293 235.469 35.0898C235.508 34.8789 235.527 34.6211 235.527 34.3164V32.8047H231.543V34.3164C231.543 34.6211 231.559 34.8789 231.59 35.0898C231.629 35.293 231.699 35.457 231.801 35.582C231.91 35.707 232.055 35.7969 232.234 35.8516C232.422 35.8984 232.668 35.9219 232.973 35.9219V37H226.785V35.9219C227.168 35.9141 227.473 35.8906 227.699 35.8516C227.934 35.8047 228.109 35.7227 228.227 35.6055C228.344 35.4883 228.418 35.3203 228.449 35.1016C228.488 34.8828 228.508 34.5859 228.508 34.2109V30.1914C228.508 29.8164 228.488 29.5195 228.449 29.3008C228.418 29.082 228.344 28.9141 228.227 28.7969C228.109 28.6797 227.934 28.6016 227.699 28.5625C227.473 28.5234 227.168 28.4961 226.785 28.4805V27.4023H232.973V28.4805C232.668 28.4805 232.422 28.5078 232.234 28.5625C232.055 28.6094 231.91 28.6953 231.801 28.8203C231.699 28.9453 231.629 29.1133 231.59 29.3242C231.559 29.5273 231.543 29.7812 231.543 30.0859V31.5039H235.527V30.0859C235.527 29.7812 235.508 29.5273 235.469 29.3242C235.438 29.1133 235.367 28.9453 235.258 28.8203C235.156 28.6953 235.012 28.6094 234.824 28.5625C234.645 28.5078 234.402 28.4805 234.098 28.4805V27.4023H240.285V28.4805Z" fill="white"/>
<defs>
<linearGradient id="paint0_linear_71_4204" x1="-53.6604" y1="-8.19444" x2="285.922" y2="58.968" gradientUnits="userSpaceOnUse">
<stop stop-color="#7C159D"/>
<stop offset="0.505437" stop-color="#AB0090"/>
<stop offset="1" stop-color="#B8275D"/>
</linearGradient>
</defs>
</svg>
