<svg width="343" height="64" viewBox="0 0 343 64" fill="none" xmlns="http://www.w3.org/2000/svg">
<rect width="343" height="64" fill="#72695F"/>
<path d="M83.8516 40H81.0156L77.0078 32.875L76 34.0703V40H73.5742V24.707H76V30.707L80.7578 24.707H83.875L78.543 31.0469L83.8516 40ZM86.6758 29.0781H89.1016V30.0625C89.5625 29.6484 90.0273 29.3398 90.4961 29.1367C90.9727 28.9258 91.5156 28.8203 92.125 28.8203C92.8281 28.8203 93.4805 28.9648 94.082 29.2539C94.6836 29.5352 95.1992 29.9297 95.6289 30.4375C96.0586 30.9375 96.3984 31.543 96.6484 32.2539C96.8984 32.957 97.0234 33.7227 97.0234 34.5508C97.0234 35.3867 96.8984 36.1562 96.6484 36.8594C96.3984 37.5625 96.0586 38.168 95.6289 38.6758C95.1992 39.1758 94.6836 39.5664 94.082 39.8477C93.4805 40.1289 92.8281 40.2695 92.125 40.2695C91.5156 40.2695 90.9727 40.1602 90.4961 39.9414C90.0273 39.7227 89.5625 39.4062 89.1016 38.9922V44.3711H86.6758V29.0781ZM89.1016 37.0703C89.3906 37.3906 89.7578 37.6406 90.2031 37.8203C90.6562 37.9922 91.0898 38.0781 91.5039 38.0781C92.418 38.0781 93.1602 37.7539 93.7305 37.1055C94.3086 36.457 94.5977 35.6055 94.5977 34.5508C94.5977 33.4961 94.3086 32.6406 93.7305 31.9844C93.1602 31.3281 92.418 31 91.5039 31C91.0898 31 90.6562 31.0859 90.2031 31.2578C89.7578 31.4219 89.3906 31.6641 89.1016 31.9844V37.0703ZM110.031 29.0781L105.32 42.1328C104.969 43.0781 104.457 43.7305 103.785 44.0898C103.113 44.4492 102.312 44.6289 101.383 44.6289C101.062 44.6289 100.719 44.5977 100.352 44.5352C99.9844 44.4727 99.6016 44.3672 99.2031 44.2188L99.707 41.9922C100.043 42.1172 100.352 42.2031 100.633 42.25C100.914 42.3047 101.164 42.332 101.383 42.332C102.109 42.332 102.605 42.0039 102.871 41.3477L103.305 40.293L99.1328 29.0781H101.652L104.652 37.3398L107.43 29.0781H110.031ZM123.203 34.6445H121.035V31.2695H118.973V37.8203H121.398V40H114.133V37.8203H116.547V31.2695H114.461V34.6445H112.305V29.0781H123.203V34.6445ZM125.98 29.0781H128.406V36.5898L132.707 29.0781H135.754V40H133.328V32.0547L128.793 40H125.98V29.0781ZM149.406 34.6445H147.238V31.2695H145.176V37.8203H147.602V40H140.336V37.8203H142.75V31.2695H140.664V34.6445H138.508V29.0781H149.406V34.6445ZM162.531 36.6367C162.531 37.7461 162.18 38.5859 161.477 39.1562C160.773 39.7188 159.789 40 158.523 40H152.184V29.0781H154.609V33.3086H158.547C159.797 33.3086 160.773 33.5859 161.477 34.1406C162.18 34.6875 162.531 35.5195 162.531 36.6367ZM160.105 36.6602C160.105 36.2617 159.965 35.9688 159.684 35.7812C159.402 35.5859 159.023 35.4883 158.547 35.4883H154.609V37.8203H158.547C159.023 37.8203 159.402 37.7227 159.684 37.5273C159.965 37.332 160.105 37.043 160.105 36.6602ZM180.379 34.7969C180.379 35.7891 180.641 36.5859 181.164 37.1875C181.695 37.7812 182.418 38.0781 183.332 38.0781C184.199 38.0781 184.91 37.7812 185.465 37.1875C186.027 36.5859 186.309 35.7891 186.309 34.7969C186.309 33.7891 186.043 32.9883 185.512 32.3945C184.988 31.8008 184.262 31.5039 183.332 31.5039C182.34 31.5039 181.598 31.8008 181.105 32.3945C180.621 32.9883 180.379 33.7891 180.379 34.7969ZM177.812 32.3711C177.812 31.1992 177.934 30.1289 178.176 29.1602C178.426 28.1914 178.773 27.3594 179.219 26.6641C179.672 25.9688 180.207 25.4258 180.824 25.0352C181.441 24.6445 182.125 24.4492 182.875 24.4492C183.242 24.4492 183.547 24.4844 183.789 24.5547C184.031 24.625 184.246 24.7109 184.434 24.8125C184.629 24.9062 184.809 24.9883 184.973 25.0586C185.145 25.1289 185.352 25.1641 185.594 25.1641C185.914 25.1641 186.184 25.1094 186.402 25C186.629 24.8906 186.902 24.707 187.223 24.4492L188.324 26.0547C188.035 26.4062 187.645 26.7109 187.152 26.9688C186.668 27.2266 186.148 27.3555 185.594 27.3555C185.219 27.3555 184.918 27.3203 184.691 27.25C184.473 27.1719 184.27 27.0859 184.082 26.9922C183.902 26.8984 183.723 26.8164 183.543 26.7461C183.371 26.668 183.148 26.6289 182.875 26.6289C182.508 26.6289 182.168 26.7227 181.855 26.9102C181.543 27.0898 181.266 27.3789 181.023 27.7773C180.789 28.168 180.602 28.6719 180.461 29.2891C180.328 29.8984 180.262 30.6445 180.262 31.5273C180.566 30.8086 180.992 30.2617 181.539 29.8867C182.094 29.5117 182.699 29.3242 183.355 29.3242C184.121 29.3242 184.832 29.4414 185.488 29.6758C186.145 29.9023 186.711 30.2461 187.188 30.707C187.672 31.1602 188.051 31.7266 188.324 32.4062C188.598 33.0859 188.734 33.8828 188.734 34.7969C188.734 35.5625 188.598 36.2812 188.324 36.9531C188.051 37.625 187.672 38.207 187.188 38.6992C186.711 39.1836 186.145 39.5664 185.488 39.8477C184.832 40.1289 184.121 40.2695 183.355 40.2695C181.52 40.2695 180.137 39.6289 179.207 38.3477C178.277 37.0664 177.812 35.0742 177.812 32.3711ZM190.867 36.8594C190.867 36.2188 191.039 35.6602 191.383 35.1836C191.727 34.6992 192.176 34.2969 192.73 33.9766C193.293 33.6562 193.934 33.418 194.652 33.2617C195.379 33.0977 196.117 33.0156 196.867 33.0156C197.281 33.0156 197.637 33.0234 197.934 33.0391C198.23 33.0547 198.531 33.0781 198.836 33.1094V32.6758C198.836 32.1055 198.613 31.6797 198.168 31.3984C197.73 31.1172 197.152 30.9766 196.434 30.9766C195.777 30.9766 195.109 31.0703 194.43 31.2578C193.75 31.4375 193.105 31.7031 192.496 32.0547L191.512 30.1562C192.23 29.7422 193 29.418 193.82 29.1836C194.648 28.9414 195.52 28.8203 196.434 28.8203C197.027 28.8203 197.609 28.8867 198.18 29.0195C198.758 29.1523 199.273 29.3711 199.727 29.6758C200.188 29.9805 200.555 30.3789 200.828 30.8711C201.102 31.3555 201.238 31.957 201.238 32.6758V40H198.836V38.3945C198.453 38.9883 197.887 39.4492 197.137 39.7773C196.395 40.1055 195.594 40.2695 194.734 40.2695C194.203 40.2695 193.699 40.1953 193.223 40.0469C192.754 39.9062 192.348 39.6914 192.004 39.4023C191.66 39.1133 191.383 38.7578 191.172 38.3359C190.969 37.9062 190.867 37.4141 190.867 36.8594ZM195.355 38.1016C195.832 38.1016 196.277 38.043 196.691 37.9258C197.113 37.8008 197.484 37.6328 197.805 37.4219C198.125 37.2031 198.375 36.9414 198.555 36.6367C198.742 36.332 198.836 35.9961 198.836 35.6289V35.2188C198.453 35.1562 198.094 35.1211 197.758 35.1133C197.422 35.1055 197.125 35.1016 196.867 35.1016C195.68 35.1016 194.781 35.2578 194.172 35.5703C193.57 35.8828 193.27 36.2695 193.27 36.7305C193.27 37.6445 193.965 38.1016 195.355 38.1016ZM204.59 29.0781H207.016V30.0625C207.477 29.6484 207.941 29.3398 208.41 29.1367C208.887 28.9258 209.43 28.8203 210.039 28.8203C210.742 28.8203 211.395 28.9648 211.996 29.2539C212.598 29.5352 213.113 29.9297 213.543 30.4375C213.973 30.9375 214.312 31.543 214.562 32.2539C214.812 32.957 214.938 33.7227 214.938 34.5508C214.938 35.3867 214.812 36.1562 214.562 36.8594C214.312 37.5625 213.973 38.168 213.543 38.6758C213.113 39.1758 212.598 39.5664 211.996 39.8477C211.395 40.1289 210.742 40.2695 210.039 40.2695C209.43 40.2695 208.887 40.1602 208.41 39.9414C207.941 39.7227 207.477 39.4062 207.016 38.9922V44.3711H204.59V29.0781ZM207.016 37.0703C207.305 37.3906 207.672 37.6406 208.117 37.8203C208.57 37.9922 209.004 38.0781 209.418 38.0781C210.332 38.0781 211.074 37.7539 211.645 37.1055C212.223 36.457 212.512 35.6055 212.512 34.5508C212.512 33.4961 212.223 32.6406 211.645 31.9844C211.074 31.3281 210.332 31 209.418 31C209.004 31 208.57 31.0859 208.117 31.2578C207.672 31.4219 207.305 31.6641 207.016 31.9844V37.0703ZM217.07 36.8594C217.07 36.2188 217.242 35.6602 217.586 35.1836C217.93 34.6992 218.379 34.2969 218.934 33.9766C219.496 33.6562 220.137 33.418 220.855 33.2617C221.582 33.0977 222.32 33.0156 223.07 33.0156C223.484 33.0156 223.84 33.0234 224.137 33.0391C224.434 33.0547 224.734 33.0781 225.039 33.1094V32.6758C225.039 32.1055 224.816 31.6797 224.371 31.3984C223.934 31.1172 223.355 30.9766 222.637 30.9766C221.98 30.9766 221.312 31.0703 220.633 31.2578C219.953 31.4375 219.309 31.7031 218.699 32.0547L217.715 30.1562C218.434 29.7422 219.203 29.418 220.023 29.1836C220.852 28.9414 221.723 28.8203 222.637 28.8203C223.23 28.8203 223.812 28.8867 224.383 29.0195C224.961 29.1523 225.477 29.3711 225.93 29.6758C226.391 29.9805 226.758 30.3789 227.031 30.8711C227.305 31.3555 227.441 31.957 227.441 32.6758V40H225.039V38.3945C224.656 38.9883 224.09 39.4492 223.34 39.7773C222.598 40.1055 221.797 40.2695 220.938 40.2695C220.406 40.2695 219.902 40.1953 219.426 40.0469C218.957 39.9062 218.551 39.6914 218.207 39.4023C217.863 39.1133 217.586 38.7578 217.375 38.3359C217.172 37.9062 217.07 37.4141 217.07 36.8594ZM221.559 38.1016C222.035 38.1016 222.48 38.043 222.895 37.9258C223.316 37.8008 223.688 37.6328 224.008 37.4219C224.328 37.2031 224.578 36.9414 224.758 36.6367C224.945 36.332 225.039 35.9961 225.039 35.6289V35.2188C224.656 35.1562 224.297 35.1211 223.961 35.1133C223.625 35.1055 223.328 35.1016 223.07 35.1016C221.883 35.1016 220.984 35.2578 220.375 35.5703C219.773 35.8828 219.473 36.2695 219.473 36.7305C219.473 37.6445 220.168 38.1016 221.559 38.1016ZM232.785 34.7969C232.785 35.7891 233.047 36.5859 233.57 37.1875C234.102 37.7812 234.824 38.0781 235.738 38.0781C236.605 38.0781 237.316 37.7812 237.871 37.1875C238.434 36.5859 238.715 35.7891 238.715 34.7969C238.715 33.7891 238.449 32.9883 237.918 32.3945C237.395 31.8008 236.668 31.5039 235.738 31.5039C234.746 31.5039 234.004 31.8008 233.512 32.3945C233.027 32.9883 232.785 33.7891 232.785 34.7969ZM230.219 32.3711C230.219 31.1992 230.34 30.1289 230.582 29.1602C230.832 28.1914 231.18 27.3594 231.625 26.6641C232.078 25.9688 232.613 25.4258 233.23 25.0352C233.848 24.6445 234.531 24.4492 235.281 24.4492C235.648 24.4492 235.953 24.4844 236.195 24.5547C236.438 24.625 236.652 24.7109 236.84 24.8125C237.035 24.9062 237.215 24.9883 237.379 25.0586C237.551 25.1289 237.758 25.1641 238 25.1641C238.32 25.1641 238.59 25.1094 238.809 25C239.035 24.8906 239.309 24.707 239.629 24.4492L240.73 26.0547C240.441 26.4062 240.051 26.7109 239.559 26.9688C239.074 27.2266 238.555 27.3555 238 27.3555C237.625 27.3555 237.324 27.3203 237.098 27.25C236.879 27.1719 236.676 27.0859 236.488 26.9922C236.309 26.8984 236.129 26.8164 235.949 26.7461C235.777 26.668 235.555 26.6289 235.281 26.6289C234.914 26.6289 234.574 26.7227 234.262 26.9102C233.949 27.0898 233.672 27.3789 233.43 27.7773C233.195 28.168 233.008 28.6719 232.867 29.2891C232.734 29.8984 232.668 30.6445 232.668 31.5273C232.973 30.8086 233.398 30.2617 233.945 29.8867C234.5 29.5117 235.105 29.3242 235.762 29.3242C236.527 29.3242 237.238 29.4414 237.895 29.6758C238.551 29.9023 239.117 30.2461 239.594 30.707C240.078 31.1602 240.457 31.7266 240.73 32.4062C241.004 33.0859 241.141 33.8828 241.141 34.7969C241.141 35.5625 241.004 36.2812 240.73 36.9531C240.457 37.625 240.078 38.207 239.594 38.6992C239.117 39.1836 238.551 39.5664 237.895 39.8477C237.238 40.1289 236.527 40.2695 235.762 40.2695C233.926 40.2695 232.543 39.6289 231.613 38.3477C230.684 37.0664 230.219 35.0742 230.219 32.3711ZM243.273 36.8594C243.273 36.2188 243.445 35.6602 243.789 35.1836C244.133 34.6992 244.582 34.2969 245.137 33.9766C245.699 33.6562 246.34 33.418 247.059 33.2617C247.785 33.0977 248.523 33.0156 249.273 33.0156C249.688 33.0156 250.043 33.0234 250.34 33.0391C250.637 33.0547 250.938 33.0781 251.242 33.1094V32.6758C251.242 32.1055 251.02 31.6797 250.574 31.3984C250.137 31.1172 249.559 30.9766 248.84 30.9766C248.184 30.9766 247.516 31.0703 246.836 31.2578C246.156 31.4375 245.512 31.7031 244.902 32.0547L243.918 30.1562C244.637 29.7422 245.406 29.418 246.227 29.1836C247.055 28.9414 247.926 28.8203 248.84 28.8203C249.434 28.8203 250.016 28.8867 250.586 29.0195C251.164 29.1523 251.68 29.3711 252.133 29.6758C252.594 29.9805 252.961 30.3789 253.234 30.8711C253.508 31.3555 253.645 31.957 253.645 32.6758V40H251.242V38.3945C250.859 38.9883 250.293 39.4492 249.543 39.7773C248.801 40.1055 248 40.2695 247.141 40.2695C246.609 40.2695 246.105 40.1953 245.629 40.0469C245.16 39.9062 244.754 39.6914 244.41 39.4023C244.066 39.1133 243.789 38.7578 243.578 38.3359C243.375 37.9062 243.273 37.4141 243.273 36.8594ZM247.762 38.1016C248.238 38.1016 248.684 38.043 249.098 37.9258C249.52 37.8008 249.891 37.6328 250.211 37.4219C250.531 37.2031 250.781 36.9414 250.961 36.6367C251.148 36.332 251.242 35.9961 251.242 35.6289V35.2188C250.859 35.1562 250.5 35.1211 250.164 35.1133C249.828 35.1055 249.531 35.1016 249.273 35.1016C248.086 35.1016 247.188 35.2578 246.578 35.5703C245.977 35.8828 245.676 36.2695 245.676 36.7305C245.676 37.6445 246.371 38.1016 247.762 38.1016ZM266.77 40H264.344V35.4883H259.422V40H256.996V29.0781H259.422V33.3086H264.344V29.0781H266.77V40Z" fill="white"/>
</svg>
